<?xml version="1.0" encoding="iso-8859-1"?>
<!-- Generator: Adobe Illustrator 25.4.1, SVG Export Plug-In . SVG Version: 6.00 Build 0)  -->
<svg version="1.1" id="Laag_1" xmlns="http://www.w3.org/2000/svg" xmlns:xlink="http://www.w3.org/1999/xlink" x="0px" y="0px"
	 viewBox="0 0 378.597 96.663" style="enable-background:new 0 0 378.597 96.663;" xml:space="preserve">
<g>
	<g>
		<g>
			<path style="fill:#ffffff;" d="M31.169,84.98c0.269-1.997,0.664-3.552,0.657-5.105c-0.041-9.913,0.924-19.664,7.193-28.793
				c1.128-1.642,1.613-3.667,1.632-5.52c0.144-13.705,0.044-27.411,0.149-41.117c0.022-2.868-1.868-4.27-5.6-4.349
				c-5.962-0.125-11.934-0.118-17.898-0.046c-4.347,0.053-5.907,1.732-5.865,4.867c0.178,13.347,0.013,26.697,0.16,40.044
				c0.023,2.088,0.401,4.386,1.66,6.219c7.334,10.677,6.885,22.171,7.623,33.799C24.209,84.98,27.789,84.98,31.169,84.98z"/>
			<path style="fill:#ffffff;" d="M31.169,84.98c-3.38,0-6.959,0-10.288,0c-0.738-11.628-0.289-23.122-7.623-33.799
				c-1.259-1.833-1.637-4.131-1.66-6.219c-0.147-13.348,0.018-26.697-0.16-40.044c-0.042-3.135,1.518-4.814,5.865-4.867
				c5.965-0.073,11.936-0.079,17.898,0.046c3.731,0.078,5.621,1.481,5.6,4.349c-0.105,13.705-0.005,27.412-0.149,41.117
				c-0.019,1.852-0.504,3.877-1.632,5.52c-6.269,9.128-7.235,18.879-7.193,28.793C31.832,81.429,31.438,82.983,31.169,84.98z"/>
		</g>
		<path style="fill:#ffffff;" d="M19.195,75.598c-2.869,0.812-5.662,1.626-7.943,3.582c-2.25,1.93-2.408,4.466-0.305,6.554
			c1.916,1.903,4.37,2.848,6.913,3.473c5.999,1.473,12.009,1.484,17.913-0.459c1.626-0.535,3.242-1.325,4.625-2.325
			c3.304-2.389,3.308-5.457-0.097-7.702c-1.885-1.242-4.141-1.928-6.239-2.843c-0.464-0.203-1.324-0.013-1.006-0.936
			c0.274-0.794,0.295-1.88,1.72-1.6c3.811,0.75,7.585,1.626,11.033,3.473c2.192,1.174,4.287,2.523,5.543,4.799
			c1.275,2.31,1.175,4.57-0.322,6.737c-1.614,2.335-3.946,3.779-6.47,4.907c-5.243,2.343-10.811,3.4-16.505,3.404
			c-4.073,0.003-8.191-0.284-12.21-0.934c-4.965-0.802-9.738-2.376-13.495-6.007c-3.092-2.989-3.142-6.82-0.104-9.91
			c2.607-2.653,5.939-4.053,9.433-5.084c1.664-0.491,3.377-0.813,5.073-1.194C18.727,73.091,19.001,73.316,19.195,75.598z"/>
	</g>
	<g>
		<path style="fill:#ffffff;" d="M208.781,56.697c0-4.389,1.347-7.81,4.041-10.262c2.693-2.452,6.402-3.678,11.125-3.678
			c4.722,0,9.504,0.606,14.348,1.816l-1.544,12.623c-6.175-1.392-10.322-2.089-12.44-2.089c-1.271,0-1.907,0.515-1.907,1.544
			c0,0.667,0.695,1.271,2.089,1.816c4.843,1.756,8.49,3.754,10.942,5.994c2.452,2.24,3.678,5.601,3.678,10.08
			c0,4.481-1.15,7.887-3.451,10.217c-2.301,2.331-5.827,3.496-10.579,3.496c-4.754,0-11.49-1.606-16.212-2.816l2.999-11.26
			c6.053,1.635,9.974,2.452,11.76,2.452c1.785,0,2.679-0.423,2.679-1.271c0-0.847-0.667-1.513-1.997-1.998
			c-5.39-2.058-9.324-4.252-11.806-6.584C210.022,64.447,208.781,61.087,208.781,56.697z"/>
		<path style="fill:#ffffff;" d="M266.719,87.437c-4.48,0.545-8.37,0.817-11.669,0.817c-3.301,0-5.873-0.863-7.719-2.588
			c-1.848-1.726-2.77-4.707-2.77-8.945V55.652h-4.359V44.392h5.085l0.817-8.354h13.713v8.354h8.082l-0.636,11.261h-7.537v18.071
			c0,1.271,0.604,1.907,1.816,1.907c0.12,0,1.998-0.091,5.63-0.272L266.719,87.437z"/>
		<path style="fill:#ffffff;" d="M303.77,55.198l-0.454,18.798c0,1.151,0.286,1.923,0.862,2.316c0.575,0.394,1.559,0.59,2.951,0.59
			l-1.361,10.988c-3.513,0.241-5.449,0.363-5.812,0.363c-4.48,0-7.326-1.544-8.536-4.632h-0.454
			c-2.24,3.088-5.691,4.632-10.353,4.632c-3.573,0-6.312-1.149-8.219-3.451c-1.907-2.3-2.86-5.448-2.86-9.444
			c0-5.024,1.558-8.505,4.677-10.443c3.117-1.937,8.037-3.208,14.757-3.814v-2.179c0-1.694-0.849-2.542-2.543-2.542
			c-2.905,0-7.446,0.878-13.621,2.633l-2.271-13.258c7.749-1.998,14.196-2.997,19.343-2.997c5.146,0,8.748,0.999,10.807,2.997
			C302.739,47.752,303.77,50.901,303.77,55.198z M286.242,77.629c2.239,0,3.36-1.181,3.36-3.542v-4.449
			c-2.24,0.304-3.83,0.771-4.768,1.407c-0.939,0.636-1.407,1.711-1.407,3.224C283.428,76.509,284.365,77.629,286.242,77.629z"/>
		<path style="fill:#ffffff;" d="M308.218,56.697c0-4.389,1.347-7.81,4.041-10.262c2.693-2.452,6.402-3.678,11.125-3.678
			c4.722,0,9.504,0.606,14.348,1.816l-1.544,12.623c-6.175-1.392-10.322-2.089-12.44-2.089c-1.271,0-1.907,0.515-1.907,1.544
			c0,0.667,0.695,1.271,2.089,1.816c4.843,1.756,8.49,3.754,10.942,5.994c2.452,2.24,3.678,5.601,3.678,10.08
			c0,4.481-1.15,7.887-3.451,10.217c-2.301,2.331-5.827,3.496-10.579,3.496c-4.754,0-9.49-0.606-14.212-1.816l0.999-12.26
			c6.053,1.635,9.974,2.452,11.76,2.452c1.785,0,2.679-0.423,2.679-1.271c0-0.847-0.667-1.513-1.997-1.998
			c-5.39-2.058-9.324-4.252-11.806-6.584C309.458,64.447,308.218,61.087,308.218,56.697z"/>
		<path style="fill:#ffffff;" d="M357.165,47.026c3.329-2.845,6.932-4.269,10.807-4.269c3.874,0,6.614,0.924,8.219,2.77
			c1.604,1.847,2.406,4.617,2.406,8.309v33.51h-15.438V59.012c0-1.513-0.667-2.27-1.998-2.27c-1.695,0-3.119,0.424-4.269,1.271
			v29.333h-15.256v-58.21h15.165v17.89H357.165z"/>
	</g>
	<g>
		<path style="fill:#ffffff;" d="M71.087,28.269c0-1.021-0.079-1.762-0.238-2.22s-0.238-0.881-0.238-1.269
			c0-0.528,0.282-0.969,0.846-1.321c0.563-0.352,1.233-0.528,2.008-0.528c1.797,0,3.25,0.467,4.36,1.4s1.665,2.07,1.665,3.409
			v40.115c0,2.608,0.211,4.828,0.634,6.66s1.057,3.33,1.903,4.492c0.846,1.163,1.884,2.018,3.118,2.563
			c1.233,0.547,2.643,0.819,4.229,0.819c1.515,0,2.915-0.281,4.202-0.846c1.286-0.563,2.405-1.339,3.356-2.325
			c0.951-0.986,1.691-2.149,2.22-3.488c0.528-1.339,0.793-2.802,0.793-4.388c0-2.431-0.423-4.457-1.269-6.078
			c-0.846-1.62-1.947-2.924-3.304-3.911c-1.356-0.985-2.89-1.682-4.598-2.087c-1.709-0.405-3.409-0.608-5.1-0.608
			c-0.317,0-0.634-0.202-0.952-0.607c-0.317-0.405-0.582-0.907-0.792-1.507c-0.211-0.599-0.37-1.242-0.476-1.929
			c-0.105-0.688-0.124-1.33-0.053-1.93c0.07-0.599,0.238-1.101,0.502-1.506c0.265-0.404,0.678-0.608,1.242-0.608
			c0.846,0,1.867-0.105,3.065-0.316c1.198-0.212,2.449-0.59,3.753-1.137c1.303-0.546,2.59-1.276,3.858-2.193
			c1.269-0.916,2.414-2.088,3.436-3.515s1.85-3.118,2.484-5.074c0.634-1.955,0.951-4.236,0.951-6.845
			c0-2.043-0.343-4.061-1.031-6.052c-0.687-1.99-1.789-3.77-3.303-5.338c-1.515-1.567-3.454-2.836-5.814-3.806
			c-2.361-0.969-5.198-1.453-8.509-1.453c-4.334,0-8.052,0.67-11.152,2.009s-5.629,3.136-7.584,5.391
			c-1.956,2.256-3.392,4.872-4.307,7.849c-0.917,2.979-1.375,6.123-1.375,9.435c0,2.396,0.203,4.413,0.608,6.052
			c0.405,1.639,0.854,2.978,1.348,4.017c0.493,1.04,0.952,1.807,1.375,2.3c0.422,0.493,0.669,0.775,0.74,0.845
			c0.599-0.176,1.021-0.105,1.269,0.212c0.246,0.317,0.37,0.74,0.37,1.269c0,0.494-0.168,1.233-0.502,2.22
			c-0.335,0.987-0.785,1.912-1.348,2.774c-0.564,0.864-1.216,1.516-1.956,1.956c-0.74,0.441-1.498,0.361-2.273-0.238
			c-0.423-0.387-1.075-1.092-1.956-2.113c-0.881-1.022-1.753-2.387-2.616-4.097c-0.864-1.709-1.63-3.77-2.299-6.184
			c-0.67-2.413-1.004-5.206-1.004-8.378c0-5.073,0.793-9.663,2.378-13.768s3.814-7.619,6.686-10.545
			c2.872-2.924,6.298-5.18,10.28-6.765c3.981-1.586,8.386-2.379,13.214-2.379c4.087,0,7.796,0.555,11.125,1.665
			s6.175,2.722,8.536,4.836c2.36,2.114,4.184,4.696,5.471,7.743c1.286,3.048,1.929,6.493,1.929,10.333
			c0,2.96-0.353,5.638-1.057,8.033c-0.706,2.397-1.683,4.546-2.934,6.448c-1.251,1.903-2.731,3.586-4.439,5.048
			c-1.709,1.463-3.55,2.722-5.523,3.779c1.585,0.458,3.065,1.136,4.44,2.034c1.374,0.899,2.571,2.035,3.594,3.409
			c1.021,1.375,1.832,2.986,2.431,4.837c0.599,1.85,0.899,3.938,0.899,6.263c0,2.714-0.485,5.215-1.454,7.505
			c-0.97,2.291-2.299,4.264-3.991,5.92c-1.691,1.656-3.691,2.951-5.999,3.885c-2.308,0.934-4.802,1.4-7.479,1.4
			c-3.559,0-6.519-0.537-8.879-1.611c-2.361-1.076-4.247-2.59-5.655-4.546c-1.41-1.956-2.405-4.299-2.986-7.029
			c-0.581-2.73-0.872-5.77-0.872-9.117V28.269z"/>
		<path style="fill:#ffffff;" d="M137.012,53.48c0,2.009-0.344,4.07-1.031,6.184c-0.687,2.114-1.709,4.115-3.065,5.999
			c-1.357,1.886-3.031,3.577-5.021,5.074c-1.991,1.498-4.291,2.635-6.897,3.409c0.352,0.917,0.819,1.789,1.4,2.616
			c0.582,0.828,1.277,1.542,2.088,2.141c0.81,0.6,1.752,1.075,2.828,1.427c1.074,0.353,2.316,0.528,3.726,0.528
			c2.114,0,3.929-0.396,5.444-1.188c1.515-0.793,2.792-1.841,3.832-3.146c1.039-1.303,1.876-2.766,2.511-4.387
			c0.634-1.62,1.11-3.259,1.427-4.915c0.246-1.197,0.748-1.999,1.506-2.405c0.757-0.404,1.533-0.502,2.326-0.29
			c0.792,0.211,1.48,0.66,2.061,1.348c0.582,0.687,0.819,1.506,0.714,2.458c-0.142,1.092-0.379,2.344-0.714,3.752
			c-0.335,1.41-0.837,2.837-1.506,4.281c-0.669,1.445-1.524,2.863-2.563,4.255c-1.04,1.393-2.317,2.635-3.832,3.727
			c-1.516,1.091-3.295,1.973-5.338,2.643c-2.044,0.669-4.387,1.004-7.029,1.004c-2.467,0-4.854-0.484-7.162-1.453
			c-2.309-0.97-4.353-2.36-6.131-4.176c-1.78-1.814-3.207-4.052-4.281-6.713c-1.075-2.659-1.612-5.682-1.612-9.064
			c0-3.417,0.476-6.597,1.427-9.54c0.951-2.941,2.202-5.487,3.752-7.637c1.55-2.149,3.312-3.832,5.285-5.048
			c1.973-1.216,3.999-1.823,6.078-1.823c1.515,0,2.881,0.265,4.096,0.793c1.216,0.528,2.247,1.277,3.092,2.246
			c0.846,0.97,1.488,2.123,1.929,3.462C136.792,50.38,137.012,51.859,137.012,53.48z M119.57,66.271
			c0,0.316,0.018,0.634,0.053,0.951c0.035,0.317,0.053,0.652,0.053,1.004c1.338-0.634,2.554-1.444,3.646-2.431
			c1.092-0.986,2.026-2.114,2.801-3.383c0.775-1.269,1.375-2.651,1.797-4.149c0.423-1.497,0.634-3.057,0.634-4.678
			c0-1.197-0.203-2.131-0.608-2.801c-0.406-0.669-0.96-1.004-1.665-1.004c-0.881,0-1.665,0.3-2.352,0.898
			c-0.687,0.6-1.287,1.383-1.797,2.352c-0.511,0.97-0.934,2.062-1.269,3.277c-0.335,1.216-0.608,2.44-0.819,3.673
			c-0.211,1.234-0.353,2.405-0.423,3.515C119.552,64.606,119.535,65.53,119.57,66.271z"/>
		<path style="fill:#ffffff;" d="M169.147,53.48c0,2.009-0.344,4.07-1.031,6.184c-0.688,2.114-1.709,4.115-3.064,5.999
			c-1.357,1.886-3.031,3.577-5.021,5.074c-1.991,1.498-4.291,2.635-6.897,3.409c0.352,0.917,0.819,1.789,1.4,2.616
			c0.582,0.828,1.277,1.542,2.088,2.141c0.81,0.6,1.752,1.075,2.828,1.427c1.074,0.353,2.316,0.528,3.726,0.528
			c2.114,0,3.928-0.396,5.443-1.188s2.793-1.841,3.832-3.146c1.039-1.303,1.877-2.766,2.512-4.387
			c0.633-1.62,1.109-3.259,1.426-4.915c0.246-1.197,0.748-1.999,1.508-2.405c0.756-0.404,1.531-0.502,2.324-0.29
			c0.793,0.211,1.48,0.66,2.062,1.348c0.58,0.687,0.818,1.506,0.713,2.458c-0.141,1.092-0.379,2.344-0.713,3.752
			c-0.336,1.41-0.838,2.837-1.508,4.281c-0.67,1.445-1.523,2.863-2.562,4.255c-1.039,1.393-2.318,2.635-3.832,3.727
			c-1.516,1.091-3.295,1.973-5.338,2.643c-2.045,0.669-4.387,1.004-7.03,1.004c-2.467,0-4.854-0.484-7.162-1.453
			c-2.309-0.97-4.353-2.36-6.131-4.176c-1.78-1.814-3.207-4.052-4.281-6.713c-1.075-2.659-1.612-5.682-1.612-9.064
			c0-3.417,0.476-6.597,1.427-9.54c0.951-2.941,2.202-5.487,3.752-7.637c1.55-2.149,3.312-3.832,5.285-5.048
			c1.973-1.216,3.999-1.823,6.078-1.823c1.515,0,2.881,0.265,4.096,0.793c1.216,0.528,2.247,1.277,3.092,2.246
			c0.846,0.97,1.488,2.123,1.93,3.462C168.926,50.38,169.147,51.859,169.147,53.48z M151.705,66.271
			c0,0.316,0.018,0.634,0.053,0.951c0.035,0.317,0.053,0.652,0.053,1.004c1.338-0.634,2.554-1.444,3.646-2.431
			c1.092-0.986,2.026-2.114,2.801-3.383c0.775-1.269,1.375-2.651,1.797-4.149c0.423-1.497,0.634-3.057,0.634-4.678
			c0-1.197-0.203-2.131-0.608-2.801c-0.406-0.669-0.96-1.004-1.665-1.004c-0.881,0-1.665,0.3-2.352,0.898
			c-0.687,0.6-1.287,1.383-1.797,2.352c-0.511,0.97-0.934,2.062-1.269,3.277c-0.335,1.216-0.608,2.44-0.819,3.673
			c-0.211,1.234-0.353,2.405-0.423,3.515C151.687,64.606,151.67,65.53,151.705,66.271z"/>
		<path style="fill:#ffffff;" d="M199.961,87.993c-1.269,0-2.563-0.194-3.885-0.581c-1.321-0.389-2.52-1.058-3.594-2.009
			c-1.075-0.951-1.956-2.211-2.643-3.779c-0.688-1.567-1.031-3.549-1.031-5.945c0-3.489,0.467-7.18,1.401-11.073
			c0.933-3.894,2.28-8.184,4.043-12.87h-8.245h-1.216c-0.035,1.058-0.098,2.396-0.185,4.017c-0.089,1.621-0.238,3.349-0.449,5.18
			c-0.212,1.833-0.485,3.683-0.819,5.55c-0.335,1.868-0.749,3.595-1.242,5.18c-0.353,1.128-0.907,1.78-1.665,1.956
			c-0.758,0.177-1.506,0.044-2.246-0.396s-1.34-1.084-1.797-1.93c-0.459-0.846-0.564-1.726-0.317-2.643
			c0.281-1.092,0.528-2.422,0.74-3.99c0.211-1.567,0.378-3.224,0.502-4.968c0.123-1.744,0.22-3.489,0.291-5.233
			c0.069-1.744,0.123-3.303,0.158-4.677c-1.34-0.74-2.449-1.683-3.33-2.828c-0.881-1.145-1.321-2.511-1.321-4.096
			c0-0.74,0.149-1.418,0.449-2.035c0.299-0.616,0.695-1.145,1.189-1.586c0.493-0.439,1.074-0.774,1.744-1.004
			c0.669-0.229,1.356-0.344,2.062-0.344c0.634,0,1.295,0.089,1.981,0.265c0.688,0.177,1.339,0.493,1.956,0.951
			c0.616,0.458,1.171,1.057,1.665,1.797c0.493,0.74,0.898,1.657,1.216,2.748c0.88,0.106,1.629,0.186,2.246,0.238
			c0.616,0.053,1.136,0.098,1.559,0.132c0.423,0.036,0.775,0.053,1.058,0.053c0.281,0,0.563,0,0.846,0h5.655
			c0.317,0,0.783,0.194,1.4,0.582c0.616,0.388,1.224,0.89,1.823,1.506c0.599,0.617,1.102,1.278,1.507,1.982
			c0.404,0.705,0.555,1.374,0.449,2.009c0,0.211-0.124,0.722-0.37,1.532c-0.247,0.811-0.547,1.833-0.898,3.065
			c-0.353,1.234-0.74,2.652-1.163,4.255c-0.423,1.604-0.811,3.286-1.163,5.048c-0.353,1.762-0.652,3.585-0.898,5.47
			c-0.246,1.886-0.369,3.727-0.369,5.523c0,0.74,0.087,1.463,0.264,2.167c0.176,0.705,0.44,1.33,0.793,1.876
			c0.352,0.547,0.801,0.979,1.348,1.295c0.546,0.317,1.189,0.476,1.93,0.476c1.232,0,2.29-0.387,3.171-1.162
			c0.88-0.774,1.62-1.744,2.22-2.907c0.599-1.163,0.084-0.422,0.453-1.779c0.37-1.355-0.321,1.367-0.074,0.168
			c0.211-1.127,0.562-1.946,1.057-2.457c0.493-0.511,1.004-0.767,1.533-0.767c0.422,0,0.862,0.132,1.321,0.396
			c0.457,0.265,0.872,0.607,1.241,1.03c0.37,0.423,0.669,0.898,0.899,1.428c0.229,0.528,0.343,1.057,0.343,1.585
			c0,0.177-0.018,0.317-0.053,0.423c-0.035,0.106,0.947-1.788,0.947-1.683c-0.494,1.797-0.137-0.317-0.929,1.655
			c-0.793,1.974-2.733,7.518-3.966,9.175c-1.234,1.656-2.331,1.804-5.771,1.972C201.741,88.034,202.287,87.993,199.961,87.993z"/>
	</g>
</g>
</svg>
