<?xml version="1.0" encoding="UTF-8"?>
<svg width="280px" height="498px" viewBox="0 0 280 498" version="1.1" xmlns="http://www.w3.org/2000/svg" xmlns:xlink="http://www.w3.org/1999/xlink">
    <title>preview</title>
    <g id="Page-1" stroke="none" stroke-width="1" fill="none" fill-rule="evenodd">
        <g id="Group" transform="translate(-110.000000, -1.000000)">
            <g id="preview" transform="translate(120.000000, 11.000000)">
                <path d="M130,477.44 L196.14,477.44 C196.14,477.44 194.85,358 237.8,279.31 C280.75,200.62 245.8,99.19 245.8,99.19 L14.23,99.19 C14.23,99.19 -20.77,200.64 22.23,279.31 C65.23,357.98 63.89,477.44 63.89,477.44 L130,477.44 Z" id="Path" fill="#FDDA00" fill-rule="nonzero"></path>
                <path d="M130,140.05 L255.34,140.05 C251.34,115.48 245.77,99.19 245.77,99.19 L14.23,99.19 C14.23,99.19 8.62,115.48 4.66,140.05 L130,140.05 Z" id="Path" fill="#FFFFFF" fill-rule="nonzero"></path>
                <path d="M62.62,443.91 C63.99,464.29 63.86,477.44 63.86,477.44 L196.14,477.44 C196.14,477.44 196.01,464.29 197.38,443.91 L62.62,443.91 Z" id="Path" fill="#FFFFFF" fill-rule="nonzero"></path>
                <path d="M245.77,99.19 L204.9,99.19 C204.9,99.19 239.9,200.64 196.9,279.31 C153.9,357.98 155.24,477.44 155.24,477.44 L196.1,477.44 C196.1,477.44 194.85,358 237.8,279.31 C280.75,200.62 245.77,99.19 245.77,99.19 Z" id="Path" fill="#88451F" fill-rule="nonzero" opacity="0.3"></path>
                <path d="M51.64,99.19 L14.23,99.19 C14.23,99.19 -20.77,200.64 22.23,279.31 C65.23,357.98 63.89,477.44 63.89,477.44 L196.14,477.44 C196.14,477.44 194.85,358 237.8,279.31 C280.75,200.62 245.8,99.19 245.8,99.19 L87.86,99.19" id="Path" stroke="#000000" stroke-width="20" stroke-linecap="round" stroke-linejoin="round"></path>
                <path d="M213.25,57.93 C211.549287,57.9675401 209.854116,58.1380603 208.18,58.44 C208.18,58.27 208.18,58.1 208.18,57.93 C208.18,38.71 192.36,23.13 172.84,23.13 C171.244181,23.1452657 169.650955,23.262169 168.07,23.48 C160.807676,9.40090463 146.291789,0.555269903 130.45,0.555269903 C114.608211,0.555269903 100.092324,9.40090463 92.83,23.48 C91.2491219,23.2614363 89.6558491,23.1445295 88.06,23.13 C68.55,23.13 52.73,38.71 52.73,57.93 C52.73,58.1 52.73,58.27 52.73,58.44 C51.0525178,58.1380675 49.3540246,57.9675494 47.65,57.93 C39.1470881,57.8661092 30.9670781,61.1827271 24.9096011,67.1501859 C18.852124,73.1176447 15.4134143,81.2470845 15.35,89.75 C15.3666971,92.9741704 15.8862775,96.1760002 16.89,99.24 L51.58,99.24 L51.58,150.11 C51.58,160.111877 59.6881232,168.22 69.69,168.22 C79.6918768,168.22 87.8,160.111877 87.8,150.11 L87.8,99.24 L244,99.24 C245.012482,96.1772696 245.542154,92.9756259 245.57,89.75 C245.506601,81.243592 242.065141,73.1111017 236.003329,67.1430676 C229.941517,61.1750336 221.756363,57.8607766 213.25,57.93 Z" id="Path" fill="#FFFFFF" fill-rule="nonzero"></path>
                <path d="M213.25,57.93 C211.549287,57.9675401 209.854116,58.1380603 208.18,58.44 C208.18,58.27 208.18,58.1 208.18,57.93 C208.18,38.71 192.36,23.13 172.84,23.13 C171.244181,23.1452657 169.650955,23.262169 168.07,23.48 C160.807676,9.40090463 146.291789,0.555269903 130.45,0.555269903 C114.608211,0.555269903 100.092324,9.40090463 92.83,23.48 C91.2491219,23.2614363 89.6558491,23.1445295 88.06,23.13 C68.55,23.13 52.73,38.71 52.73,57.93 C52.73,58.1 52.73,58.27 52.73,58.44 C51.0525178,58.1380675 49.3540246,57.9675494 47.65,57.93 C39.1470881,57.8661092 30.9670781,61.1827271 24.9096011,67.1501859 C18.852124,73.1176447 15.4134143,81.2470845 15.35,89.75 C15.3666971,92.9741704 15.8862775,96.1760002 16.89,99.24 L51.58,99.24 L51.58,150.11 C51.58,160.111877 59.6881232,168.22 69.69,168.22 C79.6918768,168.22 87.8,160.111877 87.8,150.11 L87.8,99.24 L244,99.24 C245.012482,96.1772696 245.542154,92.9756259 245.57,89.75 C245.506601,81.243592 242.065141,73.1111017 236.003329,67.1430676 C229.941517,61.1750336 221.756363,57.8607766 213.25,57.93 Z" id="Path" stroke="#000000" stroke-width="20" stroke-linecap="round" stroke-linejoin="round"></path>
                <line x1="68.62" y1="443.91" x2="197.38" y2="443.91" id="Path" stroke="#000000" stroke-width="20" stroke-linecap="round" stroke-linejoin="round"></line>
            </g>
        </g>
    </g>
</svg>