<?xml version="1.0" standalone="no"?>
<!DOCTYPE svg PUBLIC "-//W3C//DTD SVG 20010904//EN"
 "http://www.w3.org/TR/2001/REC-SVG-20010904/DTD/svg10.dtd">
<svg version="1.0" xmlns="http://www.w3.org/2000/svg"
 width="498.000000pt" height="498.000000pt" viewBox="0 0 498.000000 498.000000"
 preserveAspectRatio="xMidYMid meet">
<metadata>
Created by potrace 1.14, written by Peter Selinger 2001-2017
</metadata>
<g transform="translate(0.000000,498.000000) scale(0.100000,-0.100000)"
fill="#000000" stroke="none">
<path d="M2395 4963 c-103 -21 -188 -67 -269 -146 -51 -50 -79 -69 -101 -71
-108 -11 -215 -65 -291 -149 -29 -33 -54 -65 -54 -70 0 -6 -6 -18 -13 -26 -8
-9 -19 -35 -26 -58 -9 -34 -17 -44 -39 -48 -54 -10 -127 -38 -163 -61 -41 -26
-119 -101 -119 -114 0 -5 -6 -15 -13 -22 -15 -15 -47 -91 -54 -127 -2 -13 -5
-49 -7 -80 -2 -31 -15 -96 -30 -146 -29 -101 -72 -299 -81 -372 -3 -26 -8 -57
-10 -68 -20 -100 -28 -533 -12 -665 14 -111 16 -124 37 -225 32 -145 93 -313
171 -467 80 -159 128 -272 176 -413 32 -94 96 -326 109 -397 3 -18 7 -37 8
-43 3 -9 14 -66 22 -110 5 -24 31 -185 38 -235 12 -86 23 -180 31 -280 4 -41
8 -91 11 -110 2 -19 6 -114 10 -210 6 -190 12 -212 63 -233 21 -9 212 -12 716
-11 l688 0 28 32 c26 29 29 39 30 110 2 118 15 362 24 427 2 17 7 59 10 95 3
36 8 79 10 95 7 51 36 246 41 269 2 11 7 37 10 56 52 317 162 656 303 938 62
123 102 214 125 284 20 60 54 187 60 223 3 17 10 54 16 84 6 30 13 84 16 120
3 36 8 77 10 91 5 29 4 326 -1 385 -16 194 -53 417 -96 575 -18 65 -33 146
-34 187 -5 128 -54 239 -138 315 -43 39 -130 82 -194 97 -49 12 -52 15 -67 58
-54 159 -221 289 -383 298 -25 1 -43 14 -79 54 -123 137 -310 199 -489 164z"/>
</g>
</svg>
